<svg width="20" height="23" viewBox="0 0 20 23" fill="none" xmlns="http://www.w3.org/2000/svg">
<path fill-rule="evenodd" clip-rule="evenodd" d="M17.0259 8.71078C16.9805 10.758 16.9274 13.1472 17.952 13.5C19.16 13.7883 20 14.7141 20 16C20 17.2432 19.181 18.3026 17.952 18.4903C16.3436 18.7359 13.7439 19 10 19C6.25609 19 3.65641 18.7359 2.04797 18.4903C0.819038 18.3026 0 17.2432 0 16C0 14.7141 0.792004 13.7884 2 13.5C3.05551 13.1482 3.00857 10.8346 2.96698 8.7842C2.94946 7.92075 2.93289 7.10396 3 6.5C3.5 2 7 0 10 0C13 0 16.5 2 17 6.5C17.0625 7.06228 17.0448 7.85677 17.0259 8.71078ZM2.46436 15.4453L2.54946 15.425L2.63246 15.3974C3.98633 14.9461 4.48726 13.7177 4.68253 13.0234C4.89943 12.2521 4.95904 11.3774 4.97701 10.6245C4.9921 9.99205 4.9784 9.32098 4.96626 8.7262C4.96361 8.59603 4.96101 8.46896 4.95883 8.34731C4.94567 7.61589 4.94764 7.08203 4.98777 6.72086C5.35619 3.40502 7.83694 2 10 2C12.1631 2 14.6438 3.40502 15.0122 6.72086C15.0483 7.04564 15.0492 7.55757 15.0345 8.28898C15.0322 8.40553 15.0295 8.5267 15.0267 8.65143C15.0134 9.24846 14.9982 9.927 15.0115 10.5702C15.0272 11.3295 15.083 12.2064 15.2874 12.9768C15.463 13.6384 15.9325 14.9198 17.3009 15.391L17.3929 15.4227L17.4877 15.4453C17.7236 15.5017 17.8447 15.5995 17.8999 15.665C17.9463 15.7201 18 15.8123 18 16C18 16.182 17.941 16.3099 17.881 16.3843C17.8266 16.4516 17.7567 16.4969 17.6501 16.5132C16.1483 16.7426 13.6498 17 10 17C6.35016 17 3.85174 16.7426 2.34993 16.5132C2.24331 16.4969 2.17335 16.4516 2.11903 16.3843C2.05896 16.3099 2 16.182 2 16C2 15.7823 2.0606 15.6845 2.09732 15.6394C2.13889 15.5884 2.23862 15.4992 2.46436 15.4453Z" fill="#1D1E21"/>
<path d="M7.54999 20.0012C6.99839 19.9736 6.52886 20.3984 6.50125 20.95C6.47364 21.5016 6.89842 21.9711 7.45001 21.9988C9.48141 22.1004 10.5186 22.1004 12.55 21.9988C13.1016 21.9711 13.5264 21.5016 13.4987 20.95C13.4711 20.3984 13.0016 19.9736 12.45 20.0012C10.4852 20.0996 9.51477 20.0996 7.54999 20.0012Z" fill="#1D1E21"/>
</svg>
