<svg width="18" height="22" viewBox="0 0 18 22" fill="none" xmlns="http://www.w3.org/2000/svg">
<path fill-rule="evenodd" clip-rule="evenodd" d="M0.76628 3.81023C0.867459 1.67717 2.62633 -0.000244141 4.76179 -0.000244141H13.2386C15.3741 -0.000244141 17.1329 1.67717 17.2341 3.81023L17.9975 19.9041C18.0822 21.6891 15.9618 22.6806 14.6462 21.4713L10.3537 17.5253C9.58848 16.8218 8.41191 16.8218 7.64666 17.5253L3.35418 21.4713C2.0386 22.6806 -0.0817809 21.6891 0.00288725 19.9041L0.76628 3.81023ZM4.76179 1.99976C3.69406 1.99976 2.81462 2.83846 2.76403 3.90499L2.00064 19.9989L6.29312 16.0529C7.82362 14.6459 10.1768 14.6459 11.7073 16.0529L15.9997 19.9989L15.2364 3.90499C15.1858 2.83847 14.3063 1.99976 13.2386 1.99976H4.76179Z" fill="#1D1E21"/>
</svg>
