<svg width="23" height="23" viewBox="0 0 23 23" fill="none" xmlns="http://www.w3.org/2000/svg">
<path d="M7 12C7.55229 12 8 11.5523 8 11C8 10.4477 7.55229 10 7 10C6.44772 10 6 10.4477 6 11C6 11.5523 6.44772 12 7 12Z" fill="#1D1E21"/>
<path d="M12 11C12 11.5523 11.5523 12 11 12C10.4477 12 10 11.5523 10 11C10 10.4477 10.4477 10 11 10C11.5523 10 12 10.4477 12 11Z" fill="#1D1E21"/>
<path d="M15 12C15.5523 12 16 11.5523 16 11C16 10.4477 15.5523 10 15 10C14.4477 10 14 10.4477 14 11C14 11.5523 14.4477 12 15 12Z" fill="#1D1E21"/>
<path fill-rule="evenodd" clip-rule="evenodd" d="M18.7977 3.21913C14.5059 -1.07316 7.53431 -1.07323 3.24242 3.22002C-0.113849 6.57573 -0.842507 11.5429 1.02687 15.6083C1.2582 16.1854 1.33645 16.4332 1.33645 16.6266C1.33645 17.3213 1.02144 18.1396 0.649859 18.9631C0.610595 19.0502 0.569396 19.1401 0.527795 19.2308C0.394571 19.5215 0.257098 19.8215 0.166036 20.0645C0.106233 20.2241 0.0363909 20.4343 0.0107256 20.6522C-0.0105356 20.8328 -0.0367612 21.3083 0.342148 21.6872C0.554989 21.9 0.801359 21.9779 0.966005 22.0075C1.1309 22.0371 1.28086 22.0308 1.38942 22.0197C1.6052 21.9975 1.82566 21.937 2.01136 21.8778C2.38524 21.7586 2.84132 21.5699 3.26845 21.3932L3.28556 21.3861C3.73846 21.1987 4.1811 21.0156 4.58185 20.8773C5.00569 20.7311 5.26739 20.6775 5.38777 20.676C5.57782 20.6769 5.82831 20.759 6.40947 20.9925C10.4754 22.8612 15.4411 22.1339 18.7977 18.7769C23.089 14.4851 23.097 7.51891 18.7977 3.21913ZM4.65668 4.63418C8.16749 1.12209 13.8726 1.12209 17.3834 4.63327C20.9008 8.1511 20.8947 13.8511 17.3834 17.3628C14.6342 20.1123 10.5618 20.7094 7.22536 19.1664C7.2101 19.1593 7.19468 19.1527 7.17909 19.1464L7.1116 19.1192C6.62844 18.924 6.0142 18.676 5.38456 18.676L5.37863 18.676C4.90434 18.6788 4.37196 18.8341 3.92962 18.9867C3.48789 19.1391 3.01714 19.3327 2.59709 19.5065C2.93821 18.7259 3.33645 17.6744 3.33645 16.6266C3.33645 15.9905 3.09103 15.3805 2.89231 14.8865L2.87342 14.8396C2.86703 14.8237 2.86024 14.808 2.85305 14.7924C1.30945 11.4568 1.90746 7.38281 4.65668 4.63418Z" fill="#1D1E21"/>
</svg>
