<svg width="22" height="22" viewBox="0 0 22 22" fill="none" xmlns="http://www.w3.org/2000/svg">
<path fill-rule="evenodd" clip-rule="evenodd" d="M15.6972 6.28316C15.9626 6.54127 16.0637 6.92486 15.9599 7.28021L14.1523 13.4726C14.0566 13.8003 13.8003 14.0566 13.4726 14.1523L7.28022 15.9599C6.92486 16.0637 6.54127 15.9626 6.28316 15.6972C6.02504 15.4319 5.93465 15.0456 6.04819 14.6933L7.99791 8.64298C8.09661 8.33668 8.33669 8.0966 8.64299 7.99789L14.6933 6.04819C15.0456 5.93465 15.4319 6.02505 15.6972 6.28316ZM8.53029 13.5115L9.74429 9.74429L12.386 12.386L8.53029 13.5115Z" fill="#1D1E21"/>
<path fill-rule="evenodd" clip-rule="evenodd" d="M22 11C22 17.0751 17.0751 22 11 22C4.92487 22 0 17.0751 0 11C0 4.92487 4.92487 0 11 0C17.0751 0 22 4.92487 22 11ZM20 11C20 15.9706 15.9706 20 11 20C6.02944 20 2 15.9706 2 11C2 6.02944 6.02944 2 11 2C15.9706 2 20 6.02944 20 11Z" fill="#1D1E21"/>
</svg>
