<svg width="18" height="18" viewBox="0 0 18 18" fill="none" xmlns="http://www.w3.org/2000/svg">
<path d="M10 5C10 5.55228 9.55229 6 9 6C8.44771 6 8 5.55228 8 5C8 4.44772 8.44771 4 9 4C9.55229 4 10 4.44772 10 5Z" fill="#8F98A6"/>
<path d="M9 7.5C9.55229 7.5 10 7.94772 10 8.5V13C10 13.5523 9.55229 14 9 14C8.44772 14 8 13.5523 8 13V8.5C8 7.94772 8.44772 7.5 9 7.5Z" fill="#8F98A6"/>
<path fill-rule="evenodd" clip-rule="evenodd" d="M9 0.25C4.16751 0.25 0.25 4.16751 0.25 9C0.25 13.8325 4.16751 17.75 9 17.75C13.8325 17.75 17.75 13.8325 17.75 9C17.75 4.16751 13.8325 0.25 9 0.25ZM1.75 9C1.75 4.99594 4.99594 1.75 9 1.75C13.0041 1.75 16.25 4.99594 16.25 9C16.25 13.0041 13.0041 16.25 9 16.25C4.99594 16.25 1.75 13.0041 1.75 9Z" fill="#8F98A6"/>
</svg>
