<svg width="122" height="52" viewBox="0 0 122 52" fill="none" xmlns="http://www.w3.org/2000/svg">
<path fill-rule="evenodd" clip-rule="evenodd" d="M20.5609 37.9167C16.6355 36.7023 13.9779 33.1381 14.0001 29.12C14.0756 26.2947 15.521 23.6741 17.8966 22.0567C20.8628 19.8456 22.8366 16.5999 23.4027 13C27.0494 16.4342 28.5836 21.4847 27.4435 26.3033C29.9735 25.4562 31.582 23.0306 31.34 20.4317C31.34 20.4317 34.9478 25.2525 33.76 30.9617C33.2116 34.0134 31.703 36.8236 29.4417 39C25.311 36.9807 22.3659 33.215 21.46 28.795C19.4374 31.4329 19.0911 34.9516 20.5609 37.9167Z" fill="black"/>
<path d="M46.128 35V21.336H48.452L53.408 29.988L58.336 21.336H60.66V35H58.168V24.612H58.812L54.08 32.788H52.708L47.976 24.612H48.62V35H46.128ZM67.7692 35V23.604H62.9532V21.336H75.4412V23.604H70.5972V35H67.7692ZM75.2653 35V31.668H78.5973V35H75.2653ZM82.4138 40.04V21.336H85.1858V24.416H84.8778C85.1765 23.408 85.7645 22.6053 86.6418 22.008C87.5191 21.392 88.5551 21.084 89.7498 21.084C90.9631 21.084 92.0178 21.3733 92.9138 21.952C93.8285 22.5307 94.5285 23.3427 95.0138 24.388C95.5178 25.4333 95.7698 26.6933 95.7698 28.168C95.7698 29.6053 95.5178 30.8653 95.0138 31.948C94.5285 33.012 93.8378 33.8333 92.9418 34.412C92.0458 34.972 90.9818 35.252 89.7498 35.252C88.5738 35.252 87.5471 34.9533 86.6698 34.356C85.7925 33.7587 85.2045 32.9653 84.9058 31.976H85.2418V40.04H82.4138ZM89.0498 33.068C90.2258 33.068 91.1591 32.648 91.8498 31.808C92.5591 30.968 92.9138 29.7547 92.9138 28.168C92.9138 26.5627 92.5591 25.3493 91.8498 24.528C91.1591 23.7067 90.2258 23.296 89.0498 23.296C87.8925 23.296 86.9591 23.7067 86.2498 24.528C85.5405 25.3493 85.1858 26.5627 85.1858 28.168C85.1858 29.7547 85.5405 30.968 86.2498 31.808C86.9591 32.648 87.8925 33.068 89.0498 33.068ZM100.466 40.04L103.154 34.048V35.252L97.1902 21.336H100.214L104.806 32.676H104.022L108.67 21.336H111.582L103.434 40.04H100.466Z" fill="black"/>
</svg>
