<svg width="22" height="22" viewBox="0 0 22 22" fill="none" xmlns="http://www.w3.org/2000/svg">
<path d="M0.327379 5.98934C0.462996 3.88016 0.530804 2.82557 0.984718 2.02573C1.38433 1.32158 1.98823 0.755265 2.71657 0.401657C3.54389 0 4.60066 0 6.71419 0H15.2862C17.3997 0 18.4565 0 19.2838 0.401657C20.0121 0.755265 20.616 1.32158 21.0156 2.02573C21.4696 2.82557 21.5374 3.88016 21.673 5.98934L21.8787 9.18934C22.031 11.5581 22.1072 12.7424 21.6932 13.654C21.3294 14.4551 20.7116 15.1139 19.9355 15.5284C19.0524 16 17.8655 16 15.4919 16H6.50844C4.13482 16 2.94801 16 2.06489 15.5284C1.28877 15.1139 0.670963 14.4551 0.307144 13.654C-0.106832 12.7424 -0.0306795 11.5581 0.121625 9.18934L0.327379 5.98934Z" fill="#1D1E21"/>
<path d="M3.93605 18C3.93605 17.4477 4.38376 17 4.93605 17H17.0643C17.6166 17 18.0643 17.4477 18.0643 18C18.0643 18.5523 17.6166 19 17.0643 19H4.93605C4.38376 19 3.93605 18.5523 3.93605 18Z" fill="#1D1E21"/>
<path d="M6.95743 20C6.40514 20 5.95743 20.4477 5.95743 21C5.95743 21.5523 6.40514 22 6.95743 22H15.0429C15.5952 22 16.0429 21.5523 16.0429 21C16.0429 20.4477 15.5952 20 15.0429 20H6.95743Z" fill="#1D1E21"/>
</svg>
