<svg width="24" height="20" viewBox="0 0 24 20" fill="none" xmlns="http://www.w3.org/2000/svg">
<path d="M9.5073 6.1298C9.82081 5.95229 10.2056 5.95715 10.5145 6.14251L15.5145 9.14251C15.8157 9.32323 16 9.64874 16 10C16 10.3513 15.8157 10.6768 15.5145 10.8575L10.5145 13.8575C10.2056 14.0429 9.82081 14.0477 9.5073 13.8702C9.19379 13.6927 9 13.3603 9 13V7C9 6.63973 9.19379 6.30731 9.5073 6.1298Z" fill="#1D1E21"/>
<path fill-rule="evenodd" clip-rule="evenodd" d="M0 10C0 7.2071 0 5.81065 0.392817 4.68805C1.0964 2.67732 2.67732 1.0964 4.68805 0.392817C5.81065 0 7.2071 0 10 0H14C16.7929 0 18.1893 0 19.312 0.392817C21.3227 1.0964 22.9036 2.67732 23.6072 4.68805C24 5.81065 24 7.2071 24 10C24 12.7929 24 14.1893 23.6072 15.312C22.9036 17.3227 21.3227 18.9036 19.312 19.6072C18.1893 20 16.7929 20 14 20H10C7.2071 20 5.81065 20 4.68805 19.6072C2.67732 18.9036 1.0964 17.3227 0.392817 15.312C0 14.1893 0 12.7929 0 10ZM10 2H14C16.9603 2 17.9304 2.02829 18.6514 2.28058C20.0876 2.78314 21.2169 3.91237 21.7194 5.34861C21.9717 6.06961 22 7.03972 22 10C22 12.9603 21.9717 13.9304 21.7194 14.6514C21.2169 16.0876 20.0876 17.2169 18.6514 17.7194C17.9304 17.9717 16.9603 18 14 18H10C7.03972 18 6.06961 17.9717 5.34861 17.7194C3.91237 17.2169 2.78314 16.0876 2.28058 14.6514C2.02829 13.9304 2 12.9603 2 10C2 7.03972 2.02829 6.06961 2.28058 5.34861C2.78314 3.91237 3.91237 2.78314 5.34861 2.28058C6.06961 2.02829 7.03972 2 10 2Z" fill="#1D1E21"/>
</svg>
